<svg width="50" height="50" viewBox="0 0 50 50" xmlns="http://www.w3.org/2000/svg"><g fill="none" fill-rule="evenodd"><circle fill="#D5FFF9" cx="25" cy="25" r="25"/><g fill="#000"><path d="M24.936 48.73c-13.12 0-23.792-10.674-23.792-23.793 0-13.12 10.673-23.793 23.792-23.793 13.12 0 23.793 10.673 23.793 23.793S38.055 48.73 24.935 48.73m0-48.73C11.186 0 0 11.186 0 24.937c0 13.75 11.187 24.936 24.936 24.936 13.75 0 24.937-11.186 24.937-24.936S38.686 0 24.936 0"/><path d="M31.82 9.963zm0 10.647zm0 11.054zm-17.467 7.298l15.87-6.373h4.107L18.46 38.96h-4.107zm3.81.402zm14.603-18.05v.85l-14.572 5.85H17.08v-1.202l13.69-5.497h1.996zm-15.687-3.92h-3.06l16.684-6.7h4.11l-16.685 6.7h-1.05zm11.764-6.7h.45l-16.684 6.7H9.726v.98h3.922v9.25l-.972.39h-2.95v.98h11.438v-.98h-1.56l13.162-5.285v8.552h-3.922v1.294l-15.902 6.386H9.726v1.307h11.438V38.96H19.87l15.87-6.373h4.379V31.28h-4.086v-9.865l.255-.102h3.83v-.98H28.843v.98h.515l-12.28 4.93v-7.87h4.084v-.982H19.54l16.683-6.7h3.896V9.55H28.843v1.144z"/></g></g></svg>