<svg width="50" height="50" viewBox="0 0 50 50" xmlns="http://www.w3.org/2000/svg"><g fill="none" fill-rule="evenodd"><circle fill="#FFCDDD" cx="25" cy="25" r="25"/><g fill="#000"><path d="M24.937 48.73c-13.12 0-23.793-10.674-23.793-23.793 0-13.12 10.673-23.793 23.793-23.793S48.73 11.817 48.73 24.937 38.055 48.73 24.936 48.73m0-48.73C11.187 0 0 11.187 0 24.937c0 13.75 11.187 24.936 24.937 24.936 13.75 0 24.936-11.186 24.936-24.936S38.687 0 24.937 0"/><path d="M27.82 10.883v.816l-9.75 3.906.006.016h-4.242l11.8-4.74h2.185zm1.11 10.62l-1.11.448-10.785 4.33v-9.678h4.084v-.98h-1.704l8.403-3.362v9.244h1.11zm-15.163 6.7h-.108l.107-.043v.043zm18.954-6.005l-14.65 5.884.048.12h-1.083V26.85l13.307-5.344h.58v-.163h1.8v.858zm-3.92 9.11v1.304l-11.765 4.724v-8.152h4.084v-.98h-1.943l13.544-5.44v8.544H28.8zm-11.765 6.594L30.2 32.615h4.11l-16.24 6.52.005.016h-1.04v-1.248zm20.21-17.52l-.354.142H31.783l-.057-.142-.353.142h-.45v-9.506l.338-.135h3.748V9.74h-6.525.117H23.57v1.143h.654L12.55 15.57l.02.052H9.683v.98h4.085v10.99l-1.216.49.05.12H9.68v.982h4.085v9.464l-1.216.488.007.015H9.682v1.145H21.12V39.15h-1.677l16.276-6.535h4.354v-1.307h-3.922v-9.92l.115-.047h3.807v-.816H37.3l-.056-.142z"/></g></g></svg>