<svg width="50" height="50" viewBox="0 0 50 50" xmlns="http://www.w3.org/2000/svg"><g fill="none" fill-rule="evenodd"><circle fill="#DDF6FF" cx="25" cy="25" r="25"/><g fill="#000"><path d="M24.936 48.73c-13.12 0-23.792-10.674-23.792-23.793 0-13.12 10.673-23.793 23.792-23.793 13.12 0 23.793 10.673 23.793 23.793S38.054 48.73 24.935 48.73m0-48.73C11.186 0 0 11.187 0 24.937c0 13.75 11.186 24.936 24.936 24.936s24.937-11.186 24.937-24.936S38.686 0 24.936 0"/><path d="M18.135 17.725zm14.687-6.2l-14.785 5.937.04.1H13.68L30.77 10.7h2.052v.825zm-1.1 13.226l-.03-.072-.182.073h-2.936v1.145h.087L16.973 30.59V18.54h4.085v-.98H19.2l13.622-5.47v12.66h-1.1zm-14.75 6.406l13.1-5.26h4.107l-16.143 6.48.087.22h-1.152v-1.44zm-3.104 1.44h-.48l.48-.194v.193zm4.267 0zm10.44-21.897h.786L12.52 17.46l.04.1h-2.94v.98h4.25v13.293l-1.35.542.087.218H9.62v.817h4.248v6.862h3.104v-6.862h4.085v-.817h-2.15l16.683-6.7h4.748V24.75H37.24l-.028-.072-.184.073h-.938V10.78l.2-.08h4.048v-.98H28.574v.98z"/></g></g></svg>