<svg width="60" height="60" viewBox="0 0 60 60" xmlns="http://www.w3.org/2000/svg" xmlns:xlink="http://www.w3.org/1999/xlink"><defs><path id="a" d="M0 59.095V.04h59.244v59.055z"/><path id="c" d="M0 59.244h59.244V.19H0z"/></defs><g fill="none" fill-rule="evenodd"><g transform="translate(0 .15)"><mask id="b" fill="#fff"><use xlink:href="#a"/></mask><path d="M29.622 57.76C14.027 57.76 1.34 45.115 1.34 29.57c0-15.545 12.687-28.192 28.282-28.192 15.596 0 28.284 12.647 28.284 28.192 0 15.546-12.688 28.193-28.284 28.193m0-57.72C13.29.04 0 13.288 0 29.57 0 45.85 13.29 59.095 29.622 59.095c16.334 0 29.622-13.245 29.622-29.527C59.244 13.288 45.956.04 29.622.04" fill="#000" mask="url(#b)"/></g><path fill="#000" d="M21.09 25.864l12.958-5.186h-1.1v-.238L21.09 25.186M25.04 26.778h.398l12.483-4.996v-.68L23.744 26.78M21.09 35.117l12.737-5.098h-.88v-.328l-11.856 4.746M37.92 30.356L23.523 36.12h1.694l12.704-5.086"/><mask id="d" fill="#fff"><use xlink:href="#c"/></mask><path fill="#000" mask="url(#d)" d="M16.31 46.413h3.634V39.17H16.31M16.31 26.778h3.634v-7.625H16.31M16.31 36.12h3.634v-6.1H16.31M11.146 29.066h13.77v-1.144h-13.77M11.146 38.216h13.77V36.88h-13.77M38.877 17.437h3.825v-7.244h-3.825M38.877 26.778h3.825v-6.1h-3.825M38.877 37.453h3.825V30.02h-3.825M34.096 19.725h13.77V18.39h-13.77M34.096 29.066h13.77v-1.144h-13.77"/></g></svg>