<?xml version="1.0" standalone="no"?>
<!DOCTYPE svg PUBLIC "-//W3C//DTD SVG 20010904//EN"
 "http://www.w3.org/TR/2001/REC-SVG-20010904/DTD/svg10.dtd">
<svg version="1.0" xmlns="http://www.w3.org/2000/svg"
 width="500.000000pt" height="500.000000pt" viewBox="0 0 500.000000 500.000000"
 preserveAspectRatio="xMidYMid meet">
<metadata>
Created by potrace 1.11, written by Peter Selinger 2001-2013
</metadata>
<g transform="translate(0.000000,500.000000) scale(0.100000,-0.100000)"
fill="#000000" stroke="none">
<path d="M2285 4989 c-468 -43 -913 -216 -1290 -498 -127 -96 -334 -297 -436
-424 -615 -764 -731 -1795 -300 -2672 341 -692 993 -1199 1736 -1349 244 -49
593 -62 832 -31 1087 143 1948 973 2143 2066 31 173 39 540 16 719 -95 722
-475 1347 -1070 1758 -315 218 -682 360 -1078 417 -131 19 -423 27 -553 14z
m570 -108 c857 -126 1581 -707 1899 -1523 100 -254 146 -494 153 -790 6 -221
-4 -361 -38 -535 -174 -903 -877 -1648 -1768 -1873 -1110 -281 -2259 250
-2761 1275 -117 238 -186 460 -226 720 -25 165 -25 513 -1 675 41 270 108 484
227 725 123 251 261 445 455 640 406 408 933 654 1510 705 140 12 397 3 550
-19z"/>
<path d="M3300 3845 l0 -315 160 0 160 0 0 315 0 315 -160 0 -160 0 0 -315z"/>
<path d="M2880 3395 l0 -55 585 0 585 0 0 55 0 55 -585 0 -585 0 0 -55z"/>
<path d="M1380 3075 l0 -325 155 0 155 0 0 325 0 325 -155 0 -155 0 0 -325z"/>
<path d="M2275 3086 l-500 -203 -3 -32 -3 -32 33 14 c18 7 266 105 550 218
446 176 512 204 478 207 -27 2 -40 8 -40 18 0 8 -3 14 -7 13 -5 -1 -233 -92
-508 -203z"/>
<path d="M3300 3005 l0 -255 160 0 160 0 0 255 0 255 -160 0 -160 0 0 -255z"/>
<path d="M2600 2990 l-595 -239 75 -1 c75 0 77 1 603 211 526 211 527 211 527
240 0 16 -3 29 -7 29 -5 -1 -276 -109 -603 -240z"/>
<path d="M940 2610 l0 -50 585 0 585 0 0 50 0 50 -585 0 -585 0 0 -50z"/>
<path d="M2880 2610 l0 -50 585 0 585 0 0 50 0 50 -585 0 -585 0 0 -50z"/>
<path d="M2273 2297 l-503 -202 0 -32 0 -31 408 165 c773 312 702 282 655 283
-24 0 -43 5 -43 10 0 6 -3 10 -7 10 -5 -1 -234 -92 -510 -203z"/>
<path d="M1380 2220 l0 -260 155 0 155 0 0 260 0 260 -155 0 -155 0 0 -260z"/>
<path d="M3300 2160 l0 -320 160 0 160 0 0 320 0 320 -160 0 -160 0 0 -320z"/>
<path d="M2595 2199 l-590 -238 75 -1 c75 0 77 1 603 212 519 209 527 213 527
240 0 16 -5 28 -12 27 -7 0 -278 -108 -603 -240z"/>
<path d="M940 1830 l0 -60 585 0 585 0 0 60 0 60 -585 0 -585 0 0 -60z"/>
<path d="M1380 1380 l0 -310 155 0 155 0 0 310 0 310 -155 0 -155 0 0 -310z"/>
</g>
</svg>
